<?xml version="1.0" ?><!DOCTYPE svg  PUBLIC '-//W3C//DTD SVG 1.1//EN'  'http://www.w3.org/Graphics/SVG/1.1/DTD/svg11.dtd'><svg enable-background="new 0 0 56.693 56.693" height="56.693px" id="Layer_1" version="1.1" viewBox="0 0 56.693 56.693" width="56.693px" xml:space="preserve" xmlns="http://www.w3.org/2000/svg" xmlns:xlink="http://www.w3.org/1999/xlink"><g><path d="M28.139,46.056c6.019,0,10.915-4.896,10.915-10.916c0-6.019-4.896-10.916-10.915-10.916   c-6.02,0-10.918,4.897-10.918,10.916C17.221,41.16,22.12,46.056,28.139,46.056z M28.139,42.787c-1.347,0-2.655-0.352-3.812-1.021   l10.357-10.571c0.722,1.189,1.101,2.545,1.101,3.946C35.784,39.357,32.355,42.787,28.139,42.787z M28.139,27.494   c1.452,0,2.849,0.406,4.066,1.177L21.753,39.338c-0.815-1.241-1.26-2.717-1.26-4.198C20.493,30.924,23.922,27.494,28.139,27.494z" fill="#474A56"/><path d="M51.007,16.47h-13.18l-6.211-6.367c0.311-0.574,0.472-1.209,0.472-1.852c0-2.181-1.772-3.953-3.951-3.953   c-2.178,0-3.951,1.772-3.951,3.953c0,0.641,0.163,1.275,0.474,1.851l-6.21,6.368H5.27c-1.131,0-2.051,0.92-2.051,2.052v32.714   c0,1.131,0.92,2.05,2.051,2.05h45.737c1.13,0,2.05-0.919,2.05-2.05V18.522C53.057,17.39,52.137,16.47,51.007,16.47z M21.793,16.47   l4.584-4.699c1.11,0.564,2.413,0.564,3.523,0l4.584,4.699H21.793z M48.958,20.572v28.613H7.321V20.572H48.958z" fill="#474A56"/></g></svg>